<svg xmlns="http://www.w3.org/2000/svg" xmlns:xlink="http://www.w3.org/1999/xlink" width="500" zoomAndPan="magnify" viewBox="0 0 375 374.999991" height="500" preserveAspectRatio="xMidYMid meet" version="1.0"><defs><g/><clipPath id="f125c2841b"><path d="M 31.25 31.25 L 337.5 31.25 L 337.5 337.5 L 31.25 337.5 Z M 31.25 31.25 " clip-rule="nonzero"/></clipPath><clipPath id="cc16043eb0"><path d="M 184.375 31.25 C 99.804688 31.25 31.25 99.804688 31.25 184.375 C 31.25 268.945312 99.804688 337.5 184.375 337.5 C 268.945312 337.5 337.5 268.945312 337.5 184.375 C 337.5 99.804688 268.945312 31.25 184.375 31.25 Z M 184.375 31.25 " clip-rule="nonzero"/></clipPath><clipPath id="8d1f5656aa"><path d="M 0.25 0.25 L 306.5 0.25 L 306.5 306.5 L 0.25 306.5 Z M 0.25 0.25 " clip-rule="nonzero"/></clipPath><clipPath id="45ec46bbfe"><path d="M 153.375 0.25 C 68.804688 0.25 0.25 68.804688 0.25 153.375 C 0.25 237.945312 68.804688 306.5 153.375 306.5 C 237.945312 306.5 306.5 237.945312 306.5 153.375 C 306.5 68.804688 237.945312 0.25 153.375 0.25 Z M 153.375 0.25 " clip-rule="nonzero"/></clipPath><clipPath id="62a7f4289d"><rect x="0" width="307" y="0" height="307"/></clipPath><clipPath id="a98e02e840"><path d="M 116.4375 84.222656 L 183 84.222656 L 183 225.972656 L 116.4375 225.972656 Z M 116.4375 84.222656 " clip-rule="nonzero"/></clipPath><clipPath id="c5db13dfb0"><path d="M 193 84.222656 L 258.1875 84.222656 L 258.1875 225.972656 L 193 225.972656 Z M 193 84.222656 " clip-rule="nonzero"/></clipPath></defs><g clip-path="url(#f125c2841b)"><g clip-path="url(#cc16043eb0)"><g transform="matrix(1, 0, 0, 1, 31, 31)"><g clip-path="url(#62a7f4289d)"><g clip-path="url(#8d1f5656aa)"><g clip-path="url(#45ec46bbfe)"><path fill="#ffffff" d="M 0.25 0.25 L 306.5 0.25 L 306.5 306.5 L 0.25 306.5 Z M 0.25 0.25 " fill-opacity="1" fill-rule="nonzero"/></g></g></g></g></g></g><g clip-path="url(#a98e02e840)"><path fill="#123b62" d="M 159.003906 162.101562 L 141.242188 130.339844 L 140.121094 164.714844 L 139 130.339844 L 121.242188 162.101562 L 121.054688 162 L 122 159.734375 L 122.988281 157.488281 C 123.3125 156.738281 123.660156 156 124 155.257812 L 125.023438 153.03125 L 127.132812 148.617188 C 127.480469 147.878906 127.851562 147.152344 128.214844 146.425781 L 129.308594 144.238281 L 130.402344 142.054688 L 131.53125 139.886719 L 133.789062 135.554688 C 134.160156 134.828125 134.558594 134.121094 134.945312 133.402344 L 138.449219 126.96875 L 140.121094 123.902344 L 141.792969 126.96875 L 144.125 131.257812 C 144.898438 132.691406 145.699219 134.113281 146.449219 135.558594 L 148.710938 139.886719 C 149.082031 140.609375 149.46875 141.328125 149.835938 142.054688 L 150.929688 144.242188 C 151.652344 145.699219 152.402344 147.148438 153.101562 148.621094 L 155.214844 153.035156 L 156.238281 155.257812 C 156.578125 156 156.925781 156.738281 157.25 157.488281 L 158.238281 159.734375 L 159.1875 162 Z M 140.121094 175.257812 C 130.570312 175.257812 122.667969 167.316406 121.34375 162.90625 C 124.859375 165.53125 134.140625 166.300781 140.121094 166.300781 C 146.101562 166.300781 155.382812 165.53125 158.898438 162.90625 C 157.574219 167.316406 149.675781 175.257812 140.121094 175.257812 Z M 181.078125 119.972656 C 179.234375 118.160156 178.09375 115.636719 178.09375 112.847656 C 178.09375 112.839844 178.09375 112.832031 178.09375 112.820312 C 178.105469 109.28125 172.445312 110.425781 170.320312 110.53125 C 167.332031 110.679688 164.355469 111.0625 161.417969 111.621094 C 150.902344 113.613281 139.632812 117.675781 131.53125 124.898438 C 137.164062 111.789062 157.71875 101.816406 182.882812 100.597656 C 180.011719 98.839844 178.09375 95.6875 178.09375 92.078125 C 178.09375 88.886719 179.59375 86.054688 181.917969 84.222656 L 127.289062 84.222656 C 121.296875 84.222656 116.4375 89.082031 116.4375 95.074219 L 116.4375 215.484375 C 116.4375 221.476562 121.296875 226.335938 127.289062 226.335938 L 128.429688 226.335938 C 157.425781 226.335938 180.945312 202.855469 180.992188 173.859375 L 181.078125 119.972656 " fill-opacity="1" fill-rule="nonzero"/></g><g clip-path="url(#c5db13dfb0)"><path fill="#ffd21f" d="M 253.753906 162.101562 L 235.992188 130.339844 L 234.871094 164.714844 L 233.75 130.339844 L 215.988281 162.101562 L 215.804688 162 L 216.75 159.734375 L 217.738281 157.488281 C 218.0625 156.738281 218.410156 156 218.75 155.257812 L 219.773438 153.03125 L 221.882812 148.617188 C 222.230469 147.878906 222.601562 147.152344 222.964844 146.425781 L 224.058594 144.238281 L 225.152344 142.054688 L 226.277344 139.886719 L 228.539062 135.554688 C 228.910156 134.828125 229.308594 134.121094 229.695312 133.402344 L 233.199219 126.96875 L 234.871094 123.902344 L 236.542969 126.96875 L 238.875 131.257812 C 239.648438 132.691406 240.449219 134.113281 241.199219 135.558594 L 243.460938 139.886719 C 243.832031 140.609375 244.21875 141.328125 244.582031 142.054688 L 245.679688 144.242188 C 246.402344 145.699219 247.152344 147.148438 247.851562 148.621094 L 249.964844 153.035156 L 250.988281 155.257812 C 251.328125 156 251.675781 156.738281 252 157.488281 L 252.988281 159.734375 L 253.9375 162 Z M 234.871094 175.257812 C 225.320312 175.257812 217.417969 167.316406 216.09375 162.90625 C 219.609375 165.53125 228.890625 166.300781 234.871094 166.300781 C 240.851562 166.300781 250.132812 165.53125 253.648438 162.90625 C 252.320312 167.316406 244.421875 175.257812 234.871094 175.257812 Z M 247.703125 84.222656 L 194.257812 84.222656 C 196.585938 86.054688 198.082031 88.886719 198.082031 92.078125 C 198.082031 95.6875 196.160156 98.839844 193.292969 100.597656 C 218.460938 101.816406 239.011719 111.789062 244.648438 124.898438 C 244.375 124.269531 243.027344 123.515625 242.488281 123.09375 C 241.71875 122.488281 240.929688 121.910156 240.125 121.351562 C 238.429688 120.175781 236.65625 119.097656 234.839844 118.113281 C 229.574219 115.257812 223.886719 113.175781 218.039062 111.890625 C 214.902344 111.203125 211.714844 110.746094 208.511719 110.539062 C 206.863281 110.433594 205.214844 110.390625 203.566406 110.417969 C 202.253906 110.4375 200.339844 110.152344 199.179688 110.847656 C 197.644531 111.765625 198.132812 114.0625 197.707031 115.566406 C 197.457031 116.457031 197.078125 117.316406 196.59375 118.101562 C 196.34375 118.5 195.125 119.59375 195.097656 119.972656 C 195.097656 119.992188 195.117188 147.015625 195.140625 173.816406 C 195.164062 202.832031 218.6875 226.335938 247.703125 226.335938 C 253.695312 226.335938 258.550781 221.476562 258.550781 215.484375 L 258.550781 95.074219 C 258.550781 89.082031 253.695312 84.222656 247.703125 84.222656 " fill-opacity="1" fill-rule="nonzero"/></g><g fill="#123b62" fill-opacity="1"><g transform="translate(69.241406, 266.176696)"><g><path d="M 1.984375 -16.796875 L 9.625 -16.796875 C 11.445312 -16.796875 13.054688 -16.445312 14.453125 -15.75 C 15.859375 -15.0625 16.945312 -14.082031 17.71875 -12.8125 C 18.5 -11.550781 18.890625 -10.082031 18.890625 -8.40625 C 18.890625 -6.71875 18.5 -5.242188 17.71875 -3.984375 C 16.945312 -2.722656 15.859375 -1.742188 14.453125 -1.046875 C 13.054688 -0.347656 11.445312 0 9.625 0 L 1.984375 0 Z M 9.4375 -3.1875 C 11.113281 -3.1875 12.453125 -3.65625 13.453125 -4.59375 C 14.453125 -5.53125 14.953125 -6.800781 14.953125 -8.40625 C 14.953125 -10 14.453125 -11.265625 13.453125 -12.203125 C 12.453125 -13.140625 11.113281 -13.609375 9.4375 -13.609375 L 5.875 -13.609375 L 5.875 -3.1875 Z M 9.4375 -3.1875 "/></g></g></g><g fill="#123b62" fill-opacity="1"><g transform="translate(89.665435, 266.176696)"><g><path d="M 1.984375 -16.796875 L 5.875 -16.796875 L 5.875 0 L 1.984375 0 Z M 1.984375 -16.796875 "/></g></g></g><g fill="#123b62" fill-opacity="1"><g transform="translate(98.137438, 266.176696)"><g><path d="M 15 -3.125 L 15 0 L 1.984375 0 L 1.984375 -16.796875 L 14.6875 -16.796875 L 14.6875 -13.6875 L 5.859375 -13.6875 L 5.859375 -10.03125 L 13.65625 -10.03125 L 13.65625 -7.015625 L 5.859375 -7.015625 L 5.859375 -3.125 Z M 15 -3.125 "/></g></g></g><g fill="#123b62" fill-opacity="1"><g transform="translate(114.841463, 266.176696)"><g><path d="M 13.34375 -8.65625 L 16.890625 -8.65625 L 16.890625 -1.84375 C 15.984375 -1.15625 14.925781 -0.628906 13.71875 -0.265625 C 12.519531 0.0976562 11.316406 0.28125 10.109375 0.28125 C 8.359375 0.28125 6.785156 -0.0859375 5.390625 -0.828125 C 4.003906 -1.566406 2.914062 -2.597656 2.125 -3.921875 C 1.332031 -5.242188 0.9375 -6.738281 0.9375 -8.40625 C 0.9375 -10.0625 1.332031 -11.550781 2.125 -12.875 C 2.914062 -14.195312 4.015625 -15.226562 5.421875 -15.96875 C 6.828125 -16.71875 8.410156 -17.09375 10.171875 -17.09375 C 11.648438 -17.09375 12.988281 -16.84375 14.1875 -16.34375 C 15.382812 -15.84375 16.390625 -15.125 17.203125 -14.1875 L 14.71875 -11.875 C 13.507812 -13.144531 12.0625 -13.78125 10.375 -13.78125 C 9.300781 -13.78125 8.347656 -13.554688 7.515625 -13.109375 C 6.679688 -12.660156 6.03125 -12.023438 5.5625 -11.203125 C 5.101562 -10.390625 4.875 -9.457031 4.875 -8.40625 C 4.875 -7.363281 5.101562 -6.429688 5.5625 -5.609375 C 6.03125 -4.796875 6.675781 -4.160156 7.5 -3.703125 C 8.320312 -3.253906 9.257812 -3.03125 10.3125 -3.03125 C 11.4375 -3.03125 12.445312 -3.269531 13.34375 -3.75 Z M 13.34375 -8.65625 "/></g></g></g><g fill="#123b62" fill-opacity="1"><g transform="translate(133.945485, 266.176696)"><g><path d="M 10.125 0.28125 C 8.382812 0.28125 6.8125 -0.09375 5.40625 -0.84375 C 4.007812 -1.59375 2.914062 -2.625 2.125 -3.9375 C 1.332031 -5.257812 0.9375 -6.75 0.9375 -8.40625 C 0.9375 -10.050781 1.332031 -11.53125 2.125 -12.84375 C 2.914062 -14.164062 4.007812 -15.203125 5.40625 -15.953125 C 6.8125 -16.710938 8.382812 -17.09375 10.125 -17.09375 C 11.875 -17.09375 13.441406 -16.710938 14.828125 -15.953125 C 16.222656 -15.203125 17.316406 -14.164062 18.109375 -12.84375 C 18.910156 -11.53125 19.3125 -10.050781 19.3125 -8.40625 C 19.3125 -6.75 18.910156 -5.257812 18.109375 -3.9375 C 17.316406 -2.625 16.222656 -1.59375 14.828125 -0.84375 C 13.441406 -0.09375 11.875 0.28125 10.125 0.28125 Z M 10.125 -3.03125 C 11.113281 -3.03125 12.007812 -3.253906 12.8125 -3.703125 C 13.613281 -4.160156 14.242188 -4.796875 14.703125 -5.609375 C 15.160156 -6.429688 15.390625 -7.363281 15.390625 -8.40625 C 15.390625 -9.4375 15.160156 -10.359375 14.703125 -11.171875 C 14.242188 -11.992188 13.613281 -12.632812 12.8125 -13.09375 C 12.007812 -13.550781 11.113281 -13.78125 10.125 -13.78125 C 9.132812 -13.78125 8.238281 -13.550781 7.4375 -13.09375 C 6.632812 -12.632812 6.003906 -11.992188 5.546875 -11.171875 C 5.097656 -10.359375 4.875 -9.4375 4.875 -8.40625 C 4.875 -7.363281 5.097656 -6.429688 5.546875 -5.609375 C 6.003906 -4.796875 6.632812 -4.160156 7.4375 -3.703125 C 8.238281 -3.253906 9.132812 -3.03125 10.125 -3.03125 Z M 10.125 -3.03125 "/></g></g></g><g fill="#123b62" fill-opacity="1"><g transform="translate(154.801516, 266.176696)"><g/></g></g><g fill="#123b62" fill-opacity="1"><g transform="translate(162.193518, 266.176696)"><g><path d="M 13.34375 -8.65625 L 16.890625 -8.65625 L 16.890625 -1.84375 C 15.984375 -1.15625 14.925781 -0.628906 13.71875 -0.265625 C 12.519531 0.0976562 11.316406 0.28125 10.109375 0.28125 C 8.359375 0.28125 6.785156 -0.0859375 5.390625 -0.828125 C 4.003906 -1.566406 2.914062 -2.597656 2.125 -3.921875 C 1.332031 -5.242188 0.9375 -6.738281 0.9375 -8.40625 C 0.9375 -10.0625 1.332031 -11.550781 2.125 -12.875 C 2.914062 -14.195312 4.015625 -15.226562 5.421875 -15.96875 C 6.828125 -16.71875 8.410156 -17.09375 10.171875 -17.09375 C 11.648438 -17.09375 12.988281 -16.84375 14.1875 -16.34375 C 15.382812 -15.84375 16.390625 -15.125 17.203125 -14.1875 L 14.71875 -11.875 C 13.507812 -13.144531 12.0625 -13.78125 10.375 -13.78125 C 9.300781 -13.78125 8.347656 -13.554688 7.515625 -13.109375 C 6.679688 -12.660156 6.03125 -12.023438 5.5625 -11.203125 C 5.101562 -10.390625 4.875 -9.457031 4.875 -8.40625 C 4.875 -7.363281 5.101562 -6.429688 5.5625 -5.609375 C 6.03125 -4.796875 6.675781 -4.160156 7.5 -3.703125 C 8.320312 -3.253906 9.257812 -3.03125 10.3125 -3.03125 C 11.4375 -3.03125 12.445312 -3.269531 13.34375 -3.75 Z M 13.34375 -8.65625 "/></g></g></g><g fill="#123b62" fill-opacity="1"><g transform="translate(181.29754, 266.176696)"><g><path d="M 10.125 0.28125 C 8.382812 0.28125 6.8125 -0.09375 5.40625 -0.84375 C 4.007812 -1.59375 2.914062 -2.625 2.125 -3.9375 C 1.332031 -5.257812 0.9375 -6.75 0.9375 -8.40625 C 0.9375 -10.050781 1.332031 -11.53125 2.125 -12.84375 C 2.914062 -14.164062 4.007812 -15.203125 5.40625 -15.953125 C 6.8125 -16.710938 8.382812 -17.09375 10.125 -17.09375 C 11.875 -17.09375 13.441406 -16.710938 14.828125 -15.953125 C 16.222656 -15.203125 17.316406 -14.164062 18.109375 -12.84375 C 18.910156 -11.53125 19.3125 -10.050781 19.3125 -8.40625 C 19.3125 -6.75 18.910156 -5.257812 18.109375 -3.9375 C 17.316406 -2.625 16.222656 -1.59375 14.828125 -0.84375 C 13.441406 -0.09375 11.875 0.28125 10.125 0.28125 Z M 10.125 -3.03125 C 11.113281 -3.03125 12.007812 -3.253906 12.8125 -3.703125 C 13.613281 -4.160156 14.242188 -4.796875 14.703125 -5.609375 C 15.160156 -6.429688 15.390625 -7.363281 15.390625 -8.40625 C 15.390625 -9.4375 15.160156 -10.359375 14.703125 -11.171875 C 14.242188 -11.992188 13.613281 -12.632812 12.8125 -13.09375 C 12.007812 -13.550781 11.113281 -13.78125 10.125 -13.78125 C 9.132812 -13.78125 8.238281 -13.550781 7.4375 -13.09375 C 6.632812 -12.632812 6.003906 -11.992188 5.546875 -11.171875 C 5.097656 -10.359375 4.875 -9.4375 4.875 -8.40625 C 4.875 -7.363281 5.097656 -6.429688 5.546875 -5.609375 C 6.003906 -4.796875 6.632812 -4.160156 7.4375 -3.703125 C 8.238281 -3.253906 9.132812 -3.03125 10.125 -3.03125 Z M 10.125 -3.03125 "/></g></g></g><g fill="#123b62" fill-opacity="1"><g transform="translate(202.153571, 266.176696)"><g><path d="M 17.40625 -16.796875 L 17.40625 0 L 14.203125 0 L 5.828125 -10.203125 L 5.828125 0 L 1.984375 0 L 1.984375 -16.796875 L 5.203125 -16.796875 L 13.5625 -6.59375 L 13.5625 -16.796875 Z M 17.40625 -16.796875 "/></g></g></g><g fill="#123b62" fill-opacity="1"><g transform="translate(222.145597, 266.176696)"><g><path d="M 15.59375 -3.171875 L 15.59375 0 L 0.90625 0 L 0.90625 -2.515625 L 10.125 -13.625 L 1.109375 -13.625 L 1.109375 -16.796875 L 15.234375 -16.796875 L 15.234375 -14.28125 L 6.046875 -3.171875 Z M 15.59375 -3.171875 "/></g></g></g><g fill="#123b62" fill-opacity="1"><g transform="translate(238.849622, 266.176696)"><g><path d="M 13.0625 -3.59375 L 5.25 -3.59375 L 3.765625 0 L -0.21875 0 L 7.265625 -16.796875 L 11.109375 -16.796875 L 18.625 0 L 14.546875 0 Z M 11.828125 -6.546875 L 9.171875 -12.984375 L 6.5 -6.546875 Z M 11.828125 -6.546875 "/></g></g></g><g fill="#123b62" fill-opacity="1"><g transform="translate(257.833652, 266.176696)"><g><path d="M 1.984375 -16.796875 L 5.875 -16.796875 L 5.875 -3.171875 L 14.296875 -3.171875 L 14.296875 0 L 1.984375 0 Z M 1.984375 -16.796875 "/></g></g></g><g fill="#123b62" fill-opacity="1"><g transform="translate(272.929655, 266.176696)"><g><path d="M 15 -3.125 L 15 0 L 1.984375 0 L 1.984375 -16.796875 L 14.6875 -16.796875 L 14.6875 -13.6875 L 5.859375 -13.6875 L 5.859375 -10.03125 L 13.65625 -10.03125 L 13.65625 -7.015625 L 5.859375 -7.015625 L 5.859375 -3.125 Z M 15 -3.125 "/></g></g></g><g fill="#123b62" fill-opacity="1"><g transform="translate(289.63368, 266.176696)"><g><path d="M 15.59375 -3.171875 L 15.59375 0 L 0.90625 0 L 0.90625 -2.515625 L 10.125 -13.625 L 1.109375 -13.625 L 1.109375 -16.796875 L 15.234375 -16.796875 L 15.234375 -14.28125 L 6.046875 -3.171875 Z M 15.59375 -3.171875 "/></g></g></g><g fill="#c1902d" fill-opacity="1"><g transform="translate(141.128901, 286.276709)"><g><path d="M 8.15625 -2.25 L 3.28125 -2.25 L 2.359375 0 L -0.140625 0 L 4.546875 -10.5 L 6.9375 -10.5 L 11.640625 0 L 9.09375 0 Z M 7.390625 -4.09375 L 5.734375 -8.109375 L 4.0625 -4.09375 Z M 7.390625 -4.09375 "/></g></g></g><g fill="#c1902d" fill-opacity="1"><g transform="translate(154.118895, 286.276709)"><g><path d="M 8.953125 -5.453125 C 9.554688 -5.265625 10.023438 -4.945312 10.359375 -4.5 C 10.703125 -4.0625 10.875 -3.515625 10.875 -2.859375 C 10.875 -1.941406 10.515625 -1.234375 9.796875 -0.734375 C 9.085938 -0.242188 8.046875 0 6.671875 0 L 1.25 0 L 1.25 -10.5 L 6.375 -10.5 C 7.65625 -10.5 8.632812 -10.253906 9.3125 -9.765625 C 10 -9.273438 10.34375 -8.609375 10.34375 -7.765625 C 10.34375 -7.253906 10.21875 -6.800781 9.96875 -6.40625 C 9.726562 -6.007812 9.390625 -5.691406 8.953125 -5.453125 Z M 3.65625 -8.671875 L 3.65625 -6.1875 L 6.078125 -6.1875 C 6.671875 -6.1875 7.125 -6.289062 7.4375 -6.5 C 7.75 -6.71875 7.90625 -7.03125 7.90625 -7.4375 C 7.90625 -7.851562 7.75 -8.160156 7.4375 -8.359375 C 7.125 -8.566406 6.671875 -8.671875 6.078125 -8.671875 Z M 6.5 -1.828125 C 7.132812 -1.828125 7.613281 -1.929688 7.9375 -2.140625 C 8.269531 -2.347656 8.4375 -2.675781 8.4375 -3.125 C 8.4375 -3.988281 7.789062 -4.421875 6.5 -4.421875 L 3.65625 -4.421875 L 3.65625 -1.828125 Z M 6.5 -1.828125 "/></g></g></g><g fill="#c1902d" fill-opacity="1"><g transform="translate(167.093885, 286.276709)"><g><path d="M 6.328125 0.1875 C 5.234375 0.1875 4.25 -0.046875 3.375 -0.515625 C 2.5 -0.992188 1.8125 -1.644531 1.3125 -2.46875 C 0.820312 -3.289062 0.578125 -4.21875 0.578125 -5.25 C 0.578125 -6.28125 0.820312 -7.207031 1.3125 -8.03125 C 1.8125 -8.851562 2.5 -9.5 3.375 -9.96875 C 4.25 -10.445312 5.234375 -10.6875 6.328125 -10.6875 C 7.421875 -10.6875 8.398438 -10.445312 9.265625 -9.96875 C 10.140625 -9.5 10.828125 -8.851562 11.328125 -8.03125 C 11.828125 -7.207031 12.078125 -6.28125 12.078125 -5.25 C 12.078125 -4.21875 11.828125 -3.289062 11.328125 -2.46875 C 10.828125 -1.644531 10.140625 -0.992188 9.265625 -0.515625 C 8.398438 -0.046875 7.421875 0.1875 6.328125 0.1875 Z M 6.328125 -1.890625 C 6.953125 -1.890625 7.515625 -2.03125 8.015625 -2.3125 C 8.515625 -2.601562 8.90625 -3.003906 9.1875 -3.515625 C 9.46875 -4.023438 9.609375 -4.601562 9.609375 -5.25 C 9.609375 -5.894531 9.46875 -6.472656 9.1875 -6.984375 C 8.90625 -7.492188 8.515625 -7.890625 8.015625 -8.171875 C 7.515625 -8.460938 6.953125 -8.609375 6.328125 -8.609375 C 5.710938 -8.609375 5.15625 -8.460938 4.65625 -8.171875 C 4.15625 -7.890625 3.757812 -7.492188 3.46875 -6.984375 C 3.1875 -6.472656 3.046875 -5.894531 3.046875 -5.25 C 3.046875 -4.601562 3.1875 -4.023438 3.46875 -3.515625 C 3.757812 -3.003906 4.15625 -2.601562 4.65625 -2.3125 C 5.15625 -2.03125 5.710938 -1.890625 6.328125 -1.890625 Z M 6.328125 -1.890625 "/></g></g></g><g fill="#c1902d" fill-opacity="1"><g transform="translate(181.253876, 286.276709)"><g><path d="M 8.34375 -5.421875 L 10.5625 -5.421875 L 10.5625 -1.15625 C 9.988281 -0.726562 9.328125 -0.394531 8.578125 -0.15625 C 7.828125 0.0703125 7.070312 0.1875 6.3125 0.1875 C 5.226562 0.1875 4.25 -0.046875 3.375 -0.515625 C 2.5 -0.984375 1.8125 -1.628906 1.3125 -2.453125 C 0.820312 -3.273438 0.578125 -4.207031 0.578125 -5.25 C 0.578125 -6.289062 0.820312 -7.222656 1.3125 -8.046875 C 1.8125 -8.867188 2.5 -9.515625 3.375 -9.984375 C 4.257812 -10.453125 5.253906 -10.6875 6.359375 -10.6875 C 7.273438 -10.6875 8.109375 -10.53125 8.859375 -10.21875 C 9.609375 -9.90625 10.238281 -9.453125 10.75 -8.859375 L 9.1875 -7.421875 C 8.4375 -8.210938 7.535156 -8.609375 6.484375 -8.609375 C 5.804688 -8.609375 5.207031 -8.46875 4.6875 -8.1875 C 4.175781 -7.90625 3.773438 -7.507812 3.484375 -7 C 3.191406 -6.488281 3.046875 -5.90625 3.046875 -5.25 C 3.046875 -4.601562 3.191406 -4.023438 3.484375 -3.515625 C 3.773438 -3.003906 4.175781 -2.601562 4.6875 -2.3125 C 5.195312 -2.03125 5.785156 -1.890625 6.453125 -1.890625 C 7.148438 -1.890625 7.78125 -2.039062 8.34375 -2.34375 Z M 8.34375 -5.421875 "/></g></g></g><g fill="#c1902d" fill-opacity="1"><g transform="translate(194.318863, 286.276709)"><g><path d="M 8.15625 -2.25 L 3.28125 -2.25 L 2.359375 0 L -0.140625 0 L 4.546875 -10.5 L 6.9375 -10.5 L 11.640625 0 L 9.09375 0 Z M 7.390625 -4.09375 L 5.734375 -8.109375 L 4.0625 -4.09375 Z M 7.390625 -4.09375 "/></g></g></g><g fill="#c1902d" fill-opacity="1"><g transform="translate(207.308856, 286.276709)"><g><path d="M 1.25 -10.5 L 6.015625 -10.5 C 7.148438 -10.5 8.15625 -10.28125 9.03125 -9.84375 C 9.90625 -9.40625 10.585938 -8.789062 11.078125 -8 C 11.566406 -7.21875 11.8125 -6.300781 11.8125 -5.25 C 11.8125 -4.195312 11.566406 -3.273438 11.078125 -2.484375 C 10.585938 -1.703125 9.90625 -1.09375 9.03125 -0.65625 C 8.15625 -0.21875 7.148438 0 6.015625 0 L 1.25 0 Z M 5.890625 -2 C 6.941406 -2 7.78125 -2.289062 8.40625 -2.875 C 9.03125 -3.457031 9.34375 -4.25 9.34375 -5.25 C 9.34375 -6.25 9.03125 -7.039062 8.40625 -7.625 C 7.78125 -8.207031 6.941406 -8.5 5.890625 -8.5 L 3.671875 -8.5 L 3.671875 -2 Z M 5.890625 -2 "/></g></g></g><g fill="#c1902d" fill-opacity="1"><g transform="translate(221.198847, 286.276709)"><g><path d="M 6.328125 0.1875 C 5.234375 0.1875 4.25 -0.046875 3.375 -0.515625 C 2.5 -0.992188 1.8125 -1.644531 1.3125 -2.46875 C 0.820312 -3.289062 0.578125 -4.21875 0.578125 -5.25 C 0.578125 -6.28125 0.820312 -7.207031 1.3125 -8.03125 C 1.8125 -8.851562 2.5 -9.5 3.375 -9.96875 C 4.25 -10.445312 5.234375 -10.6875 6.328125 -10.6875 C 7.421875 -10.6875 8.398438 -10.445312 9.265625 -9.96875 C 10.140625 -9.5 10.828125 -8.851562 11.328125 -8.03125 C 11.828125 -7.207031 12.078125 -6.28125 12.078125 -5.25 C 12.078125 -4.21875 11.828125 -3.289062 11.328125 -2.46875 C 10.828125 -1.644531 10.140625 -0.992188 9.265625 -0.515625 C 8.398438 -0.046875 7.421875 0.1875 6.328125 0.1875 Z M 6.328125 -1.890625 C 6.953125 -1.890625 7.515625 -2.03125 8.015625 -2.3125 C 8.515625 -2.601562 8.90625 -3.003906 9.1875 -3.515625 C 9.46875 -4.023438 9.609375 -4.601562 9.609375 -5.25 C 9.609375 -5.894531 9.46875 -6.472656 9.1875 -6.984375 C 8.90625 -7.492188 8.515625 -7.890625 8.015625 -8.171875 C 7.515625 -8.460938 6.953125 -8.609375 6.328125 -8.609375 C 5.710938 -8.609375 5.15625 -8.460938 4.65625 -8.171875 C 4.15625 -7.890625 3.757812 -7.492188 3.46875 -6.984375 C 3.1875 -6.472656 3.046875 -5.894531 3.046875 -5.25 C 3.046875 -4.601562 3.1875 -4.023438 3.46875 -3.515625 C 3.757812 -3.003906 4.15625 -2.601562 4.65625 -2.3125 C 5.15625 -2.03125 5.710938 -1.890625 6.328125 -1.890625 Z M 6.328125 -1.890625 "/></g></g></g></svg>